<svg xmlns="http://www.w3.org/2000/svg" viewBox="0 0 200 260" role="img" aria-label="L'assistante"><g fill="none" stroke="#141413" stroke-width="6" stroke-linecap="round" stroke-linejoin="round"><defs><marker id="dc-main-94" markerUnits="userSpaceOnUse" markerWidth="60" markerHeight="40" refX="30" refY="20" viewBox="0 0 60 40" overflow="visible"><circle cx="30" cy="20" r="5.4" fill="#FFFFFF" stroke="#141413" stroke-width="3.6"/></marker><marker id="dc-pied-94G" markerUnits="userSpaceOnUse" markerWidth="60" markerHeight="40" refX="30" refY="20" viewBox="0 0 60 40" overflow="visible"><path d="M13 21 A11 9 0 0 1 35 21 Z" fill="#FFFFFF" stroke="#141413" stroke-width="3.6" stroke-linejoin="round"/></marker><marker id="dc-pied-94D" markerUnits="userSpaceOnUse" markerWidth="60" markerHeight="40" refX="30" refY="20" viewBox="0 0 60 40" overflow="visible"><path d="M25 21 A11 9 0 0 1 47 21 Z" fill="#FFFFFF" stroke="#141413" stroke-width="3.6" stroke-linejoin="round"/></marker></defs><path d="M90 186 L86 248 L74 248" marker-end="url(#dc-pied-94G)"/><path d="M110 186 L114 248 L126 248" marker-end="url(#dc-pied-94D)"/><path d="M80 106 L120 106 L136 188 L64 188 Z" fill="#2BA58A"/><path d="M112 109 L117.5 109 L132 185 L122 185 Z" fill="#228C75" stroke="none"/><path d="M88 106 L100 124 L112 106 Z" fill="#FFFFFF" stroke-width="4"/><rect x="79" y="142" width="14" height="9" rx="2" fill="#FFFFFF" stroke-width="3"/><defs><clipPath id="dc-tete-94"><circle cx="100" cy="70" r="34"/></clipPath></defs><circle cx="100" cy="70" r="34" fill="#DCE3EE" stroke="none"/><circle cx="94" cy="67" r="34" fill="#FFFFFF" stroke="none" clip-path="url(#dc-tete-94)"/><circle cx="100" cy="70" r="34"/><path d="M130 52 C152 50 157 78 147 100 C144 107 135 104 138 96 C143 82 140 68 128 62 Z" fill="#141413" stroke-width="4"/><path d="M67 64 C58 24 142 24 133 64 C124 48 76 48 67 64 Z" fill="#141413"/><circle cx="134" cy="54" r="5" fill="#FFE45C" stroke-width="3"/><path d="M79 116 L67 146 L65 172" marker-end="url(#dc-main-94)"/><path d="M121 116 L143 140 L155 126" marker-end="url(#dc-main-94)"/><circle cx="79" cy="81" r="5.5" fill="#FF9A9A" stroke="none" opacity="0.6"/><circle cx="121" cy="81" r="5.5" fill="#FF9A9A" stroke="none" opacity="0.6"/><g stroke-width="5"><path transform="translate(87 54) scale(1)" d="M-8 -6 C-4 -12 4 -12 8 -6"/><path transform="translate(113 54) scale(1)" d="M-8 -6 C-4 -12 4 -12 8 -6"/><g transform="translate(87 68) scale(1)"><circle r="7" fill="#FFFFFF" stroke-width="3.5"/><circle r="2.6" fill="#141413" stroke="none"/></g><g transform="translate(113 68) scale(1)"><circle r="7" fill="#FFFFFF" stroke-width="3.5"/><circle r="2.6" fill="#141413" stroke="none"/></g><ellipse cx="100" cy="92" rx="6" ry="8" fill="#141413"/></g><path d="M155 126 C159 106 171 102 169 84" stroke-width="7"/><circle cx="169" cy="80" r="4" fill="#FFFFFF" stroke-width="3"/><path d="M68 28 L58 16 M100 22 L100 6 M132 28 L142 16" stroke-width="4"/></g></svg>