<svg xmlns="http://www.w3.org/2000/svg" viewBox="0 0 200 260" role="img" aria-label="Le docteur"><g fill="none" stroke="#141413" stroke-width="6" stroke-linecap="round" stroke-linejoin="round"><defs><marker id="dc-main-62" markerUnits="userSpaceOnUse" markerWidth="60" markerHeight="40" refX="30" refY="20" viewBox="0 0 60 40" overflow="visible"><circle cx="30" cy="20" r="5.4" fill="#FFFFFF" stroke="#141413" stroke-width="3.6"/></marker><marker id="dc-pied-62G" markerUnits="userSpaceOnUse" markerWidth="60" markerHeight="40" refX="30" refY="20" viewBox="0 0 60 40" overflow="visible"><path d="M13 21 A11 9 0 0 1 35 21 Z" fill="#FFFFFF" stroke="#141413" stroke-width="3.6" stroke-linejoin="round"/></marker><marker id="dc-pied-62D" markerUnits="userSpaceOnUse" markerWidth="60" markerHeight="40" refX="30" refY="20" viewBox="0 0 60 40" overflow="visible"><path d="M25 21 A11 9 0 0 1 47 21 Z" fill="#FFFFFF" stroke="#141413" stroke-width="3.6" stroke-linejoin="round"/></marker></defs><path d="M90 186 L86 248 L74 248" marker-end="url(#dc-pied-62G)"/><path d="M110 186 L114 248 L126 248" marker-end="url(#dc-pied-62D)"/><path d="M80 106 L120 106 L136 188 L64 188 Z" fill="#FFFFFF"/><path d="M110 109 L117.5 109 L132 185 L121 185 Z" fill="#DCE3EE" stroke="none"/><path d="M88 106 L100 126 L112 106" stroke-width="4"/><path d="M110 146 L126 146 L127 160 L111 160 Z" stroke-width="3.5"/><path d="M116 146 L116 137" stroke="#2F4FD8" stroke-width="3.5"/><defs><clipPath id="dc-tete-62"><circle cx="100" cy="70" r="34"/></clipPath></defs><circle cx="100" cy="70" r="34" fill="#DCE3EE" stroke="none"/><circle cx="94" cy="67" r="34" fill="#FFFFFF" stroke="none" clip-path="url(#dc-tete-62)"/><circle cx="100" cy="70" r="34"/><path d="M68 54 C64 18 136 18 132 54 C120 46 80 46 68 54 Z" fill="#8EC5FF" stroke-width="4.5"/><path d="M84 34 L84 44 M100 30 L100 42 M116 34 L116 44" stroke-width="2.5"/><path d="M79 116 L67 146 L65 172" marker-end="url(#dc-main-62)"/><path d="M121 116 L143 140 L155 126" marker-end="url(#dc-main-62)"/><circle cx="79" cy="81" r="5.5" fill="#FF9A9A" stroke="none" opacity="0.6"/><circle cx="121" cy="81" r="5.5" fill="#FF9A9A" stroke="none" opacity="0.6"/><g stroke-width="5"><path transform="translate(87 54) scale(1)" d="M-8 3 L8 -4"/><path transform="translate(113 54) scale(1)" d="M-8 -4 L8 3"/><g transform="translate(87 68) scale(1)"><circle r="7" fill="#FFFFFF" stroke-width="3.5"/><circle r="2.6" fill="#141413" stroke="none"/></g><g transform="translate(113 68) scale(1)"><circle r="7" fill="#FFFFFF" stroke-width="3.5"/><circle r="2.6" fill="#141413" stroke="none"/></g><path transform="translate(100 92) scale(1)" d="M-11 0 C-8 -4 -4 4 -1 0 C2 -4 6 4 10 0"/></g><path d="M70 92 L82 100 M130 92 L118 100" stroke-width="3"/><rect x="81" y="97" width="38" height="15" rx="7" fill="#BFE3F5" stroke-width="4"/><path d="M155 126 L157 96" stroke-width="4"/><circle cx="158" cy="88" r="8" fill="#BFE3F5" stroke-width="3.5"/><ellipse cx="147" cy="64" rx="3.5" ry="7" fill="#2F8FE0" stroke-width="2.5"/><ellipse cx="53" cy="70" rx="3.5" ry="7" fill="#2F8FE0" stroke-width="2.5"/></g></svg>