<svg xmlns="http://www.w3.org/2000/svg" viewBox="0 0 200 260" role="img" aria-label="La canine"><g fill="none" stroke="#141413" stroke-width="6" stroke-linecap="round" stroke-linejoin="round"><path d="M90 186 L86 248 L74 248"/><path d="M110 186 L114 248 L126 248"/><path d="M100 40 C122 60 140 78 140 104 C140 132 126 150 120 176 C116 190 84 190 80 176 C74 150 60 132 60 104 C60 78 78 60 100 40 Z" fill="#FFFFFF"/><circle cx="100" cy="36" r="10" fill="#E2553F" stroke-width="4"/><path d="M62 120 L50 142 L86 144"/><path d="M138 120 L160 144 L172 130"/><g stroke-width="5"><path transform="translate(87 92) scale(1)" d="M-8 0 L8 0"/><path transform="translate(113 92) scale(1)" d="M-8 0 L8 0"/><g transform="translate(87 106) scale(1)"><circle r="3.2" fill="#141413" stroke="none"/></g><g transform="translate(113 106) scale(1)"><circle r="3.2" fill="#141413" stroke="none"/></g><path transform="translate(100 130) scale(1)" d="M-8 0 L8 0"/></g><path d="M172 130 C176 110 188 106 186 88" stroke-width="7"/><circle cx="186" cy="84" r="4" fill="#FFFFFF" stroke-width="3"/></g></svg>